<?xml version="1.0" encoding="UTF-8" standalone="no"?>
<!-- Created with Inkscape (http://www.inkscape.org/) -->

<svg
   width="256"
   height="128"
   viewBox="0 0 256 128"
   version="1.1"
   id="svg1"
   inkscape:version="1.3.2 (091e20e, 2023-11-25)"
   sodipodi:docname="cop_bike.svg"
   xmlns:inkscape="http://www.inkscape.org/namespaces/inkscape"
   xmlns:sodipodi="http://sodipodi.sourceforge.net/DTD/sodipodi-0.dtd"
   xmlns="http://www.w3.org/2000/svg"
   xmlns:svg="http://www.w3.org/2000/svg">
  <sodipodi:namedview
     id="namedview1"
     pagecolor="#505050"
     bordercolor="#ffffff"
     borderopacity="1"
     inkscape:showpageshadow="0"
     inkscape:pageopacity="0"
     inkscape:pagecheckerboard="1"
     inkscape:deskcolor="#505050"
     inkscape:document-units="px"
     inkscape:zoom="4.1708333"
     inkscape:cx="74.565435"
     inkscape:cy="55.864136"
     inkscape:window-width="2560"
     inkscape:window-height="1363"
     inkscape:window-x="0"
     inkscape:window-y="0"
     inkscape:window-maximized="1"
     inkscape:current-layer="layer1"
     shape-rendering="crispEdges" />
  <defs
     id="defs1" />
  <g
     inkscape:label="Layer 1"
     inkscape:groupmode="layer"
     id="layer1"
     style="display:inline">
    <path
       style="fill:#030098;fill-opacity:1;stroke-width:0.347233"
       id="path2"
       sodipodi:type="arc"
       sodipodi:cx="37.769112"
       sodipodi:cy="90.27623"
       sodipodi:rx="37.23103"
       sodipodi:ry="37.23103"
       sodipodi:start="0"
       sodipodi:end="6.2444154"
       sodipodi:open="true"
       sodipodi:arc-type="arc"
       d="M 75.000141,90.27623 A 37.23103,37.23103 0 0 1 38.129967,127.50551 37.23103,37.23103 0 0 1 0.54507718,90.997906 37.23103,37.23103 0 0 1 36.686682,53.060939 37.23103,37.23103 0 0 1 74.972164,88.833148" />
    <path
       style="fill:#000298;fill-opacity:1;stroke-width:0.424602"
       id="path3"
       sodipodi:type="arc"
       sodipodi:cx="211.84959"
       sodipodi:cy="83.612083"
       sodipodi:rx="43.768627"
       sodipodi:ry="43.768627"
       sodipodi:start="0"
       sodipodi:end="6.2444154"
       sodipodi:open="true"
       sodipodi:arc-type="arc"
       d="m 255.61822,83.612083 a 43.768627,43.768627 0 0 1 -43.34441,43.766567 43.768627,43.768627 0 0 1 -44.18462,-42.918167 43.768627,43.768627 0 0 1 42.4879,-44.598525 43.768627,43.768627 0 0 1 45.00824,42.053645" />
    <path
       style="fill:#5e5e5e;fill-opacity:1;stroke-width:0.250058"
       id="path4"
       sodipodi:type="arc"
       sodipodi:cx="168.90002"
       sodipodi:cy="48.608021"
       sodipodi:rx="25.51511"
       sodipodi:ry="25.51511"
       sodipodi:start="0"
       sodipodi:end="6.2444154"
       sodipodi:open="true"
       sodipodi:arc-type="arc"
       d="M 194.41513,48.608021 A 25.51511,25.51511 0 0 1 169.14733,74.121932 25.51511,25.51511 0 0 1 143.38971,49.102599 25.51511,25.51511 0 0 1 168.15822,23.103696 25.51511,25.51511 0 0 1 194.39596,47.61905" />
    <rect
       style="fill:#585858;fill-opacity:1;stroke-width:0.250058"
       id="rect4"
       width="113.80061"
       height="8.2589788"
       x="10.080809"
       y="93.866714"
       ry="0"
       transform="rotate(-16.547837)" />
  </g>
</svg>
